# xmcd CD database file
#
# Track frame offsets:
#	150
#	13032
#	25705
#	38900
#	52030
#	63240
#	77640
#	91852
#	104442
#	117082
#	131120
#	143440
#	155532
#	169570
#	181275
#	195187
#	206222
#	219550
#	233112
#	247527
#
# Disc length: 3483 seconds
#
# Revision: 0
# Processed by: cddbd v1.5.2PL0 Copyright (c) Steve Scherf et al.
# Submitted via: CDex 1.70beta2
#
DISCID=fe0d9914
DTITLE=Ernest Tubb - Ernest Tubb Vol 2 1949-1951
DYEAR=1900
DGENRE=Country
TTITLE0=I'm Bitin My Finger Nails and Thinkin' Of You (With The Andrew Sisters)
TTITLE1=Don't Rob Another Mans Castle (With The Andrew Sisters)
TTITLE2=Daddy When Is Mommy Coming Home
TTITLE3=Slippin' Around
TTITLE4=My Tennessee Baby
TTITLE5=My Filipino Baby
TTITLE6=Warm Red Wine
TTITLE7=Blue Christmas
TTITLE8=White Christmas
TTITLE9=Letters Have No Arms
TTITLE10=I'll Take A Back Seat For You
TTITLE11=I Love You Because
TTITLE12=Unfaithfull One
TTITLE13=Throw Your Love My Way
TTITLE14=Give Me A Little Old Fashioned Love
TTITLE15=You Dont Have To Be A Baby To Cry
TTITLE16=(Remember Me) I'm The One Who Loves You
TTITLE17=Don't Stay Too Long
TTITLE18=Hey La La (With The Anita Kerr Singers)
TTITLE19=Driftwood On The River
EXTD=
EXTT0=
EXTT1=
EXTT2=
EXTT3=
EXTT4=
EXTT5=
EXTT6=
EXTT7=
EXTT8=
EXTT9=
EXTT10=
EXTT11=
EXTT12=
EXTT13=
EXTT14=
EXTT15=
EXTT16=
EXTT17=
EXTT18=
EXTT19=
PLAYORDER=
